# xmcd CD database file
#
# Track frame offsets:
#	150
#	19568
#	36025
#	57815
#	79000
#	98795
#	120013
#	136973
#	156003
#	177333
#
# Disc length: 2632 seconds
#
# Revision: 1
# Processed by: cddbd v1.5.2PL0 Copyright (c) Steve Scherf et al.
# Submitted via: CDex 1.51
#
DISCID=6a0a460a
DTITLE=Orhan Gencebay - Emrin Olur
DYEAR=1989
DGENRE=Arabesk
TTITLE0=Emrin Olur
TTITLE1=Ne Olacakasa Olsun
TTITLE2=Asla
TTITLE3=Farki Var
TTITLE4=Tovbe
TTITLE5=Vurda Oyle Git
TTITLE6=Allahin Emriyle
TTITLE7=Tekrar Dogda Gel
TTITLE8=Bir Icim Su Gibisin
TTITLE9=Sevme Gonlum
EXTD=YEAR: 1989
EXTT0=
EXTT1=
EXTT2=
EXTT3=
EXTT4=
EXTT5=
EXTT6=
EXTT7=
EXTT8=
EXTT9=
PLAYORDER=
